<svg xmlns="http://www.w3.org/2000/svg" xmlns:svg="http://www.w3.org/2000/svg" id="svg8" width="278.687" height="29.303" version="1.1" viewBox="0 0 73.736 7.753"><metadata id="metadata5"/><g id="layer1"><path id="path43-59-5-5-2-4" d="m 153.01254,71.260384 c -3.88311,0 -1.98085,-4.805592 -5.86396,-4.805592 -3.88311,0 -1.98085,4.805592 -5.86396,4.805592 m 0,0 c -3.88311,0 -1.98086,-4.805593 -5.86396,-4.805593 -3.88311,0 -1.98085,4.805593 -5.86396,4.805593 m 0,0 c -3.88311,0 -1.98085,-4.805593 -5.86396,-4.805593 -3.88311,0 -1.98085,4.805593 -5.86396,4.805593 m 0,0 c -3.88311,0 -1.98085,-4.805593 -5.86396,-4.805593 -3.88311,0 -1.98085,4.805593 -5.86396,4.805593 m 0,0 c -3.88311,0 -1.98085,-4.805592 -5.86396,-4.805592 -3.883113,0 -1.980853,4.805592 -5.863961,4.805592 m 62.567601,4.5e-4 c -3.88311,0 -1.98085,-4.805592 -5.86396,-4.805592 -3.88311,0 -1.98086,4.805592 -5.86396,4.805592 m 0,0 c -3.88311,0 -1.98086,-4.805593 -5.86396,-4.805593 -3.88311,0 -1.98086,4.805593 -5.86396,4.805593 m 0,0 c -3.88311,0 -1.98085,-4.805593 -5.86396,-4.805593 -3.88311,0 -1.98085,4.805593 -5.86396,4.805593 m 0,0 c -3.88311,0 -1.98085,-4.805593 -5.86396,-4.805593 -3.88311,0 -1.98085,4.805593 -5.86396,4.805593 m 0,0 c -3.88311,0 -1.98085,-4.805592 -5.86396,-4.805592 -3.88311,0 -1.98085,4.805592 -5.863963,4.805592 m 50.783543,0 c -3.88311,0 -1.98085,-4.805592 -5.86396,-4.805592 -3.88311,0 -1.98085,4.805592 -5.86396,4.805592 m 0,0 c -3.88311,0 -1.98085,-4.805593 -5.86396,-4.805593 -3.88311,0 -1.98085,4.805593 -5.86396,4.805593 m 0,0 c -3.88311,0 -1.98085,-4.805593 -5.86396,-4.805593 -3.88311,0 -1.98085,4.805593 -5.86396,4.805593 m 0,0 c -3.88311,0 -1.98085,-4.805593 -5.86396,-4.805593 -3.88311,0 -1.98085,4.805593 -5.86396,4.805593 m 0,0 c -3.883113,0 -1.98085,-4.805592 -5.863963,-4.805592 -3.883109,0 -1.98085,4.805592 -5.863958,4.805592" style="display:none;fill:none;stroke:#000;stroke-width:.694404;stroke-linecap:round;stroke-linejoin:miter;stroke-miterlimit:4;stroke-dasharray:none;stroke-opacity:1"/><path style="display:none;fill:none;stroke:#000;stroke-width:.49957;stroke-linecap:round;stroke-linejoin:miter;stroke-miterlimit:4;stroke-dasharray:none;stroke-opacity:1" id="path43-59-7" d="m 51.232386,64.941058 c -1.93146,0 -0.985277,-5.000428 -2.916738,-5.000428 -1.931461,0 -0.985276,5.000428 -2.916737,5.000428"/><path style="display:none;fill:none;stroke:#000;stroke-width:.694404;stroke-linecap:round;stroke-linejoin:miter;stroke-miterlimit:4;stroke-dasharray:none;stroke-opacity:1" id="path43-59-5-5-4" d="m 104.99717,73.777123 c -3.88311,0 -1.98085,-4.805592 -5.863961,-4.805592 -3.88311,0 -1.98085,4.805592 -5.86397,4.805592 m 0,0 c -3.883107,0 -1.980851,-4.805593 -5.863958,-4.805593 -3.88311,0 -1.980851,4.805593 -5.86396,4.805593 m 0,0 c -3.883107,0 -1.980851,-4.805593 -5.863958,-4.805593 -3.88311,0 -1.980851,4.805593 -5.863959,4.805593 m 0,0 c -3.883109,0 -1.980852,-4.805593 -5.863961,-4.805593 -3.883108,0 -1.980849,4.805593 -5.863958,4.805593 m 0,0 c -3.883108,0 -1.980851,-4.805592 -5.86396,-4.805592 -3.883109,0 -1.98085,4.805592 -5.863958,4.805592"/><path id="path43-59-5-5-4-8" d="m 77.140836,82.272089 c -1.931465,0 -0.985278,-5.000427 -2.916742,-5.000427 -1.931467,0 -0.98528,5.000427 -2.91675,5.000427 m 0,0 c -1.931464,0 -0.985277,-5.000427 -2.916742,-5.000427 -1.931465,0 -0.985278,5.000427 -2.916743,5.000427 m 0,0 c -1.931465,0 -0.985278,-5.000427 -2.916743,-5.000427 -1.931465,0 -0.985278,5.000427 -2.916742,5.000427 m 0,0 c -1.931465,0 -0.985278,-5.000427 -2.916743,-5.000427 -1.931463,0 -0.985276,5.000427 -2.916741,5.000427 m 0,0 c -1.931464,0 -0.985278,-5.000427 -2.916743,-5.000427 -1.931464,0 -0.985277,5.000427 -2.916741,5.000427" style="display:none;fill:none;stroke:#000;stroke-width:.499569;stroke-linecap:round;stroke-linejoin:miter;stroke-miterlimit:4;stroke-dasharray:none;stroke-opacity:1"/><path style="display:none;fill:#0f0;stroke:#0f0;stroke-width:.327848px;stroke-linecap:butt;stroke-linejoin:miter;stroke-opacity:1" id="path1038" d="M 36.780215,46.035748 H 119.94113"/><path style="display:inline;fill:none;stroke:#000;stroke-width:.35;stroke-linecap:round;stroke-linejoin:miter;stroke-miterlimit:4;stroke-dasharray:none;stroke-opacity:1" id="path43-59-5-5-2" d="m 42.322972,7.577794 c -1.941551,0 -0.990423,-2.402791 -2.931974,-2.402791 -1.941551,0 -0.990423,2.402791 -2.931972,2.402791 m 7.827941,2.25e-4 c -1.94155,0 -0.990422,-2.402791 -2.931973,-2.402791 -1.941551,0 -0.990423,2.402791 -2.931974,2.402791 m 1.935926,0 c -1.941551,0 -0.990423,-2.402791 -2.931974,-2.402791 -1.94155,0 -0.990422,2.402791 -2.931972,2.402791"/><path id="path43-59-5-5" d="m 31.45876,7.577792 c -1.941551,0 -0.990423,-2.402791 -2.931973,-2.402791 -1.941551,0 -0.990423,2.402791 -2.931976,2.402791 m 0,0 c -1.94155,0 -0.990423,-2.402792 -2.931973,-2.402792 -1.94155,0 -0.990423,2.402792 -2.931973,2.402792 m 0,0 c -1.94155,0 -0.990424,-2.402792 -2.931974,-2.402792 -1.94155,0 -0.990423,2.402792 -2.931972,2.402792 m 0,0 c -1.941551,0 -0.990424,-2.402792 -2.931975,-2.402792 -1.941549,0 -0.990422,2.402792 -2.931972,2.402792 m 0,0 c -1.94155,0 -0.990424,-2.402791 -2.931974,-2.402791 -1.94155,0 -0.990423,2.402791 -2.931972,2.402791 m 31.28373,2.27e-4 c -1.941551,0 -0.990423,-2.402791 -2.931974,-2.402791 -1.94155,0 -0.990428,2.402791 -2.931973,2.402791 m 0,0 c -1.941552,0 -0.990426,-2.402791 -2.931975,-2.402791 -1.941551,0 -0.990423,2.402791 -2.931974,2.402791 m 0,0 c -1.941549,0 -0.990423,-2.402791 -2.931973,-2.402791 -1.94155,0 -0.990423,2.402791 -2.931973,2.402791 m 0,0 c -1.94155,0 -0.990424,-2.402791 -2.931974,-2.402791 -1.94155,0 -0.990422,2.402791 -2.931972,2.402791 m 0,0 c -1.94155,0 -0.990424,-2.402791 -2.931974,-2.402791 -1.94155,0 -0.990423,2.402791 -2.931973,2.402791 m 25.391713,0 c -1.94155,0 -0.990422,-2.402791 -2.931974,-2.402791 -1.94155,0 -0.990423,2.402791 -2.931973,2.402791 m 0,0 c -1.94155,0 -0.990424,-2.402791 -2.931974,-2.402791 -1.94155,0 -0.990423,2.402791 -2.931973,2.402791 m 0,0 c -1.94155,0 -0.990423,-2.402791 -2.931974,-2.402791 -1.94155,0 -0.990422,2.402791 -2.931972,2.402791 m 0,0 c -1.94155,0 -0.990424,-2.402791 -2.931974,-2.402791 -1.941551,0 -0.990423,2.402791 -2.931973,2.402791 m 0,0 c -1.94155,0 -0.990424,-2.402791 -2.931974,-2.402791 -1.94155,0 -0.990423,2.402791 -2.931973,2.402791" style="display:inline;fill:none;stroke:#000;stroke-width:.35;stroke-linecap:round;stroke-linejoin:miter;stroke-miterlimit:4;stroke-dasharray:none;stroke-opacity:1"/><path id="path43-59-5-5-1-8" d="m 43.334596,0.473813 c 1.94155,0 0.990423,2.402791 2.931973,2.402791 1.941551,0 0.990423,-2.402791 2.931974,-2.402791 m 0,0 c 1.941551,0 0.990423,2.402792 2.931974,2.402792 1.94155,0 0.990422,-2.402792 2.931973,-2.402792 m 0,0 c 1.941546,0 0.990423,2.402792 2.931974,2.402792 1.941546,0 0.990418,-2.402792 2.931973,-2.402792 m 0,0 c 1.941546,0 0.990423,2.402792 2.931974,2.402792 1.941548,0 0.990418,-2.402792 2.931968,-2.402792 m 0,1.59e-4 c 1.94155,0 0.99042,2.402631 2.93197,2.402631 1.94156,0 1.72292,-2.70163 3.83986,-2.70163 M 41.3706,0.473588 c 1.941551,0 0.990423,2.402791 2.931974,2.402791 1.94155,0 0.990427,-2.402791 2.931973,-2.402791 m 0,0 c 1.941551,0 0.990423,2.402792 2.931974,2.402792 1.941551,0 0.990423,-2.402792 2.931973,-2.402792 m 0,0 c 1.941546,0 0.990423,2.402792 2.931969,2.402792 1.941556,0 0.990428,-2.402792 2.931974,-2.402792 m 0,0 c 1.94155,0 0.990428,2.402792 2.931978,2.402792 1.941546,0 0.990418,-2.402792 2.931964,-2.402792 m -19.527758,0 c 1.941551,0 0.990423,2.402791 2.931974,2.402791 1.941551,0 0.990423,-2.402791 2.931974,-2.402791 m 0,0 c 1.941545,0 0.990423,2.402792 2.931973,2.402792 1.941546,0 0.990418,-2.402792 2.931969,-2.402792 m 0,0 c 1.941551,0 0.990423,2.402792 2.931974,2.402792 1.94155,0 0.990427,-2.402792 2.931973,-2.402792 m 0,0 c 1.941551,0 0.990423,2.40288 2.931971,2.40288 1.94155,0 0.99043,-2.40288 2.93198,-2.40288 m 0,0 c 2.26333,0.02339 2.3704,2.70138 4.8078,2.70138 m -8.73583,-2.70138 c 1.94156,0 0.99043,2.402791 2.93198,2.402791 1.96224,-0.0018 3.43584,-3.56942 5.80385,-1.201408" style="display:inline;fill:none;stroke:#000;stroke-width:.347201;stroke-linecap:round;stroke-linejoin:miter;stroke-miterlimit:4;stroke-dasharray:none;stroke-opacity:1"/><path style="display:inline;fill:none;stroke:#000;stroke-width:.347201;stroke-linecap:round;stroke-linejoin:miter;stroke-miterlimit:4;stroke-dasharray:none;stroke-opacity:1" id="path43-59-5-5-8" d="m 38.3346,0.473363 c -1.941551,0 -0.990423,2.402791 -2.931974,2.402791 m 4.895969,-2.402566 c -1.94155,0 -0.990422,2.402791 -2.931973,2.402791 M 36.370574,0.473588 c -1.941551,0 -0.990423,2.402791 -2.931974,2.402791"/><path style="display:inline;fill:none;stroke:#000;stroke-width:.35;stroke-linecap:round;stroke-linejoin:miter;stroke-miterlimit:4;stroke-dasharray:none;stroke-opacity:1" id="path43-59-5-5-1" d="m 30.402616,2.876154 c -1.941551,0 -0.990423,-2.402791 -2.931973,-2.402791 -1.94155,0 -0.990422,2.402791 -2.931973,2.402791 m 0,0 c -1.94155,0 -0.990423,-2.402791 -2.931973,-2.402791 -1.941551,0 -0.990424,2.402791 -2.931974,2.402791 m 0,0 c -1.94155,0 -0.990423,-2.402791 -2.931974,-2.402791 -1.941549,0 -0.990422,2.402791 -2.931973,2.402791 m 0,0 c -1.941549,0 -0.990423,-2.402791 -2.931973,-2.402791 -1.94155,0 -0.990423,2.402791 -2.931973,2.402791 m 0,-1.6e-4 c -1.94155,0 -0.990423,-2.402631 -2.931973,-2.402631 -1.941551,0 -1.722912,2.701631 -3.839857,2.701631 M 32.366612,2.876379 c -1.941551,0 -0.990423,-2.402791 -2.931974,-2.402791 -1.941551,0 -0.990428,2.402791 -2.931972,2.402791 m 0,0 c -1.941551,0 -0.990423,-2.402791 -2.931974,-2.402791 -1.941551,0 -0.990423,2.402791 -2.931973,2.402791 m 0,0 c -1.94155,0 -0.990423,-2.402791 -2.931973,-2.402791 -1.941551,0 -0.990424,2.402791 -2.931973,2.402791 m 0,0 c -1.941551,0 -0.990425,-2.402791 -2.931974,-2.402791 -1.94155,0 -0.990423,2.402791 -2.931973,2.402791 m 19.527764,0 c -1.941549,0 -0.990422,-2.402791 -2.931972,-2.402791 -1.941551,0 -0.990423,2.402791 -2.931973,2.402791 m 0,0 c -1.94155,0 -0.990423,-2.402791 -2.931974,-2.402791 -1.941549,0 -0.990422,2.402791 -2.931973,2.402791 m 0,0 c -1.94155,0 -0.990422,-2.402791 -2.931973,-2.402791 -1.94155,0 -0.990424,2.402791 -2.931973,2.402791 m 0,0 c -1.94155,0 -0.990424,-2.40288 -2.931974,-2.40288 -1.94155,0 -0.990423,2.40288 -2.931973,2.40288 m 0,0 C 2.719475,2.852999 2.612399,0.175 0.175,0.175 m 8.735826,2.701379 c -1.94155,0 -0.990423,-2.402791 -2.931974,-2.402791 C 4.016607,0.475488 2.543012,4.043009 0.175,1.674997"/></g></svg>